<svg version="1.2" xmlns="http://www.w3.org/2000/svg" viewBox="0 0 1280 3500" width="1280" height="3500">
	<title>template_2-svg</title>
	<style>
		.s0 { fill: #f3eeea } 
		.s1 { fill: #d9ccbc } 
		.s2 { fill: #ffffff } 
		.s3 { fill: #9448a1 } 
		.s4 { fill: #a59787 } 
		.s5 { fill: #75665a } 
	</style>
	<path id="Background" class="s0" d="m0 0h1280v3500h-1280z"/>
	<g id="Border-right">
		<g id="dots">
			<path id="Layer" class="s1" d="m1214.6 214.2c0-13.9 11.2-25 25.1-25 13.9 0 25 11.1 25 25 0 13.9-11.1 25.1-25 25.1-13.9 0-25.1-11.2-25.1-25.1zm-162.7 164.2c0-14 11.1-25.1 25-25.1 13.9 0 25.1 11.1 25.1 25.1 0 13.9-11.2 25-25.1 25-13.9 0-25-11.1-25-25zm161.3 357.4c0-13.9 11.2-25 25.1-25 13.9 0 25 11.1 25 25 0 13.9-11.1 25.1-25 25.1-13.9 0-25.1-11.2-25.1-25.1zm-73.7 232.3c0-13.9 11.1-25 25-25 14 0 25.1 11.1 25.1 25 0 13.9-11.1 25.1-25.1 25.1-13.9 0-25-11.2-25-25.1zm13.9 324.1c0-13.9 11.1-25 25.1-25 13.9 0 25 11.1 25 25 0 13.9-11.1 25.1-25 25.1-14 0-25.1-11.2-25.1-25.1z"/>
			<path id="Layer" class="s2" d="m1110.3 91.8c0-13.9 11.1-25 25-25 13.9 0 25.1 11.1 25.1 25 0 13.9-11.2 25-25.1 25-13.9 0-25-11.1-25-25zm93.2 338c0-13.9 11.1-25 25-25 13.9 0 25.1 11.1 25.1 25 0 13.9-11.2 25.1-25.1 25.1-13.9 0-25-11.2-25-25.1zm-173.9 662.1c0-13.9 11.1-25 25.1-25 13.9 0 25 11.1 25 25 0 13.9-11.1 25.1-25 25.1-14 0-25.1-11.2-25.1-25.1zm45.9-453.4c0-13.9 11.2-25.1 25.1-25.1 13.9 0 25 11.2 25 25.1 0 13.9-11.1 25-25 25-13.9 0-25.1-11.1-25.1-25zm137.7 489.6c0-13.9 11.2-25 25.1-25 13.9 0 25 11.1 25 25 0 13.9-11.1 25-25 25-13.9 0-25.1-11.1-25.1-25z"/>
			<path id="Layer" class="s3" d="m968.4 541.1l-8.3 29.2z"/>
		</g>
		<g id="dots">
			<path id="Layer" class="s1" d="m1214.6 1602.7c0-13.9 11.2-25 25.1-25 13.9 0 25 11.1 25 25 0 13.9-11.1 25.1-25 25.1-13.9 0-25.1-11.2-25.1-25.1zm-162.7 164.2c0-13.9 11.1-25.1 25-25.1 13.9 0 25.1 11.2 25.1 25.1 0 13.9-11.2 25-25.1 25-13.9 0-25-11.1-25-25zm161.3 357.5c0-13.9 11.2-25.1 25.1-25.1 13.9 0 25 11.2 25 25.1 0 13.9-11.1 25-25 25-13.9 0-25.1-11.1-25.1-25zm-73.7 232.3c0-14 11.1-25.1 25-25.1 14 0 25.1 11.1 25.1 25.1 0 13.9-11.1 25-25.1 25-13.9 0-25-11.1-25-25zm13.9 324.1c0-13.9 11.1-25.1 25.1-25.1 13.9 0 25 11.2 25 25.1 0 13.9-11.1 25-25 25-14 0-25.1-11.1-25.1-25z"/>
			<path id="Layer" class="s2" d="m1110.3 1480.3c0-13.9 11.1-25 25-25 13.9 0 25.1 11.1 25.1 25 0 13.9-11.2 25.1-25.1 25.1-13.9 0-25-11.2-25-25.1zm93.2 338c0-13.9 11.1-25 25-25 13.9 0 25.1 11.1 25.1 25 0 14-11.2 25.1-25.1 25.1-13.9 0-25-11.1-25-25.1zm-173.9 662.2c0-14 11.1-25.1 25.1-25.1 13.9 0 25 11.1 25 25.1 0 13.9-11.1 25-25 25-14 0-25.1-11.1-25.1-25zm45.9-453.5c0-13.9 11.2-25 25.1-25 13.9 0 25 11.1 25 25 0 13.9-11.1 25-25 25-13.9 0-25.1-11.1-25.1-25zm137.7 489.6c0-13.9 11.2-25 25.1-25 13.9 0 25 11.1 25 25 0 13.9-11.1 25.1-25 25.1-13.9 0-25.1-11.2-25.1-25.1z"/>
			<path id="Layer" class="s3" d="m968.4 1929.6l-8.3 29.2z"/>
		</g>
		<g id="dots">
			<path id="Layer" class="s1" d="m1214.6 2991.3c0-14 11.2-25.1 25.1-25.1 13.9 0 25 11.1 25 25.1 0 13.9-11.1 25-25 25-13.9 0-25.1-11.1-25.1-25zm-162.7 164.1c0-13.9 11.1-25 25-25 13.9 0 25.1 11.1 25.1 25 0 13.9-11.2 25-25.1 25-13.9 0-25-11.1-25-25zm161.3 357.5c0-13.9 11.2-25.1 25.1-25.1 13.9 0 25 11.2 25 25.1 0 13.9-11.1 25-25 25-13.9 0-25.1-11.1-25.1-25zm-73.7 232.3c0-13.9 11.1-25.1 25-25.1 14 0 25.1 11.2 25.1 25.1 0 13.9-11.1 25-25.1 25-13.9 0-25-11.1-25-25zm13.9 324.1c0-13.9 11.1-25.1 25.1-25.1 13.9 0 25 11.2 25 25.1 0 13.9-11.1 25-25 25-14 0-25.1-11.1-25.1-25z"/>
			<path id="Layer" class="s2" d="m1135.3 2894.9c-13.8 0-25-11.2-25-25 0-13.9 11.2-25.1 25-25.1 13.9 0 25.1 11.2 25.1 25.1 0 13.8-11.2 25-25.1 25zm93.3 338c-13.9 0-25.1-11.2-25.1-25 0-13.9 11.2-25.1 25.1-25.1 13.8 0 25 11.2 25 25.1 0 13.8-11.2 25-25 25zm-174 662.1c-13.8 0-25-11.2-25-25.1 0-13.8 11.2-25 25-25 13.9 0 25.1 11.2 25.1 25 0 13.9-11.2 25.1-25.1 25.1zm46-453.5c-13.9 0-25.1-11.2-25.1-25 0-13.8 11.2-25 25.1-25 13.8 0 25 11.2 25 25 0 13.8-11.2 25-25 25zm137.7 489.7c-13.9 0-25.1-11.2-25.1-25.1 0-13.8 11.2-25 25.1-25 13.8 0 25 11.2 25 25 0 13.9-11.2 25.1-25 25.1z"/>
			<path id="Layer" class="s4" d="m968.4 3318.1l-8.3 29.3z"/>
		</g>
	</g>
	<g id="Border-left">
		<g id="dots">
			<path id="Layer" class="s1" d="m65.4 214.2c0-13.9-11.2-25-25.1-25-13.9 0-25 11.1-25 25 0 13.9 11.1 25.1 25 25.1 13.9 0 25.1-11.2 25.1-25.1zm162.7 164.2c0-14-11.1-25.1-25-25.1-13.9 0-25.1 11.1-25.1 25.1 0 13.9 11.2 25 25.1 25 13.9 0 25-11.1 25-25zm-161.3 357.4c0-13.9-11.2-25-25.1-25-13.9 0-25 11.1-25 25 0 13.9 11.1 25.1 25 25.1 13.9 0 25.1-11.2 25.1-25.1zm73.7 232.3c0-13.9-11.1-25-25-25-14 0-25.1 11.1-25.1 25 0 13.9 11.1 25.1 25.1 25.1 13.9 0 25-11.2 25-25.1zm-13.9 324.1c0-13.9-11.1-25-25.1-25-13.9 0-25 11.1-25 25 0 13.9 11.1 25.1 25 25.1 14 0 25.1-11.2 25.1-25.1z"/>
			<path id="Layer" class="s2" d="m169.7 91.8c0-13.9-11.1-25-25-25-13.9 0-25.1 11.1-25.1 25 0 13.9 11.2 25 25.1 25 13.9 0 25-11.1 25-25zm-93.2 338c0-13.9-11.1-25-25-25-13.9 0-25.1 11.1-25.1 25 0 13.9 11.2 25.1 25.1 25.1 13.9 0 25-11.2 25-25.1zm173.9 662.1c0-13.9-11.1-25-25.1-25-13.9 0-25 11.1-25 25 0 13.9 11.1 25.1 25 25.1 14 0 25.1-11.2 25.1-25.1zm-45.9-453.4c0-13.9-11.2-25.1-25.1-25.1-13.9 0-25 11.2-25 25.1 0 13.9 11.1 25 25 25 13.9 0 25.1-11.1 25.1-25zm-137.7 489.6c0-13.9-11.2-25-25.1-25-13.9 0-25 11.1-25 25 0 13.9 11.1 25 25 25 13.9 0 25.1-11.1 25.1-25z"/>
			<path id="Layer" class="s3" d="m311.6 541.1l8.3 29.2z"/>
		</g>
		<g id="dots">
			<path id="Layer" class="s1" d="m65.4 1602.7c0-13.9-11.2-25-25.1-25-13.9 0-25 11.1-25 25 0 13.9 11.1 25.1 25 25.1 13.9 0 25.1-11.2 25.1-25.1zm162.7 164.2c0-13.9-11.1-25.1-25-25.1-13.9 0-25.1 11.2-25.1 25.1 0 13.9 11.2 25 25.1 25 13.9 0 25-11.1 25-25zm-161.3 357.5c0-13.9-11.2-25.1-25.1-25.1-13.9 0-25 11.2-25 25.1 0 13.9 11.1 25 25 25 13.9 0 25.1-11.1 25.1-25zm73.7 232.3c0-14-11.1-25.1-25-25.1-14 0-25.1 11.1-25.1 25.1 0 13.9 11.1 25 25.1 25 13.9 0 25-11.1 25-25zm-13.9 324.1c0-13.9-11.1-25.1-25.1-25.1-13.9 0-25 11.2-25 25.1 0 13.9 11.1 25 25 25 14 0 25.1-11.1 25.1-25z"/>
			<path id="Layer" class="s2" d="m169.7 1480.3c0-13.9-11.1-25-25-25-13.9 0-25.1 11.1-25.1 25 0 13.9 11.2 25.1 25.1 25.1 13.9 0 25-11.2 25-25.1zm-93.2 338c0-13.9-11.1-25-25-25-13.9 0-25.1 11.1-25.1 25 0 14 11.2 25.1 25.1 25.1 13.9 0 25-11.1 25-25.1zm173.9 662.2c0-14-11.1-25.1-25.1-25.1-13.9 0-25 11.1-25 25.1 0 13.9 11.1 25 25 25 14 0 25.1-11.1 25.1-25zm-45.9-453.5c0-13.9-11.2-25-25.1-25-13.9 0-25 11.1-25 25 0 13.9 11.1 25 25 25 13.9 0 25.1-11.1 25.1-25zm-137.7 489.6c0-13.9-11.2-25-25.1-25-13.9 0-25 11.1-25 25 0 13.9 11.1 25.1 25 25.1 13.9 0 25.1-11.2 25.1-25.1z"/>
			<path id="Layer" class="s3" d="m311.6 1929.6l8.3 29.2z"/>
		</g>
		<g id="dots">
			<path id="Layer" class="s1" d="m65.4 2991.3c0-14-11.2-25.1-25.1-25.1-13.9 0-25 11.1-25 25.1 0 13.9 11.1 25 25 25 13.9 0 25.1-11.1 25.1-25zm162.7 164.1c0-13.9-11.1-25-25-25-13.9 0-25.1 11.1-25.1 25 0 13.9 11.2 25 25.1 25 13.9 0 25-11.1 25-25zm-161.3 357.5c0-13.9-11.2-25.1-25.1-25.1-13.9 0-25 11.2-25 25.1 0 13.9 11.1 25 25 25 13.9 0 25.1-11.1 25.1-25zm73.7 232.3c0-13.9-11.1-25.1-25-25.1-14 0-25.1 11.2-25.1 25.1 0 13.9 11.1 25 25.1 25 13.9 0 25-11.1 25-25zm-13.9 324.1c0-13.9-11.1-25.1-25.1-25.1-13.9 0-25 11.2-25 25.1 0 13.9 11.1 25 25 25 14 0 25.1-11.1 25.1-25z"/>
			<path id="Layer" class="s2" d="m169.7 2868.8c0-13.9-11.1-25-25-25-13.9 0-25.1 11.1-25.1 25 0 14 11.2 25.1 25.1 25.1 13.9 0 25-11.1 25-25.1zm-93.2 338.1c0-13.9-11.1-25.1-25-25.1-13.9 0-25.1 11.2-25.1 25.1 0 13.9 11.2 25 25.1 25 13.9 0 25-11.1 25-25zm173.9 662.1c0-13.9-11.1-25.1-25.1-25.1-13.9 0-25 11.2-25 25.1 0 13.9 11.1 25 25 25 14 0 25.1-11.1 25.1-25zm-45.9-453.5c0-13.9-11.2-25-25.1-25-13.9 0-25 11.1-25 25 0 13.9 11.1 25 25 25 13.9 0 25.1-11.1 25.1-25zm-137.7 489.6c0-13.9-11.2-25-25.1-25-13.9 0-25 11.1-25 25 0 14 11.1 25.1 25 25.1 13.9 0 25.1-11.1 25.1-25.1z"/>
			<path id="Layer" class="s5" d="m311.6 3318.1l8.3 29.3z"/>
		</g>
	</g>
</svg>